<svg xmlns="http://www.w3.org/2000/svg" viewBox="0 0 1200 630">
  <defs>
    <radialGradient id="dr-bg" cx="30%" cy="50%" r="70%">
      <stop offset="0%" stop-color="#1a0e14"/>
      <stop offset="100%" stop-color="#0a0e1a"/>
    </radialGradient>
    <linearGradient id="dr-stream" x1="0%" y1="0%" x2="100%" y2="0%">
      <stop offset="0%" stop-color="#f43f5e" stop-opacity="0"/>
      <stop offset="20%" stop-color="#f43f5e" stop-opacity="0.6"/>
      <stop offset="80%" stop-color="#f43f5e" stop-opacity="0.6"/>
      <stop offset="100%" stop-color="#f43f5e" stop-opacity="0"/>
    </linearGradient>
  </defs>
  <rect width="1200" height="630" fill="url(#dr-bg)"/>
  <!-- Data stream lines flowing left to right -->
  <g stroke="#f43f5e" fill="none" stroke-width="0.5" opacity="0.1">
    <path d="M0,50 C200,55 400,45 600,50 C800,55 1000,45 1200,50"/>
    <path d="M0,90 C200,95 400,85 600,90 C800,95 1000,85 1200,90"/>
    <path d="M0,140 C200,150 400,130 600,140 C800,150 1000,130 1200,140"/>
    <path d="M0,190 C200,200 400,180 600,190 C800,200 1000,180 1200,190"/>
    <path d="M0,440 C200,450 400,430 600,440 C800,450 1000,430 1200,440"/>
    <path d="M0,490 C200,500 400,480 600,490 C800,500 1000,480 1200,490"/>
    <path d="M0,540 C200,545 400,535 600,540 C800,545 1000,535 1200,540"/>
    <path d="M0,580 C200,585 400,575 600,580 C800,585 1000,575 1200,580"/>
  </g>
  <!-- Brighter central data streams -->
  <g stroke="url(#dr-stream)" fill="none" stroke-width="1" opacity="0.3">
    <path d="M0,250 C150,240 350,270 500,255 C650,240 850,275 1200,260"/>
    <path d="M0,290 C150,280 350,305 500,290 C650,275 850,310 1200,295"/>
    <path d="M0,315 C150,310 350,325 500,315 C650,305 850,325 1200,320"/>
    <path d="M0,345 C150,340 350,355 500,345 C650,335 850,355 1200,350"/>
    <path d="M0,380 C150,375 350,390 500,380 C650,370 850,395 1200,385"/>
  </g>
  <!-- Particle dots - scattered data points -->
  <g fill="#f43f5e">
    <!-- Top scattered -->
    <circle cx="120" cy="78" r="1.2" opacity="0.25"/>
    <circle cx="245" cy="112" r="1.5" opacity="0.3"/>
    <circle cx="380" cy="65" r="1" opacity="0.2"/>
    <circle cx="510" cy="145" r="1.3" opacity="0.25"/>
    <circle cx="670" cy="95" r="1.5" opacity="0.3"/>
    <circle cx="790" cy="130" r="1" opacity="0.2"/>
    <circle cx="920" cy="75" r="1.2" opacity="0.25"/>
    <circle cx="1050" cy="110" r="1.3" opacity="0.2"/>
    <!-- Central concentration -->
    <circle cx="200" cy="280" r="2" opacity="0.4"/>
    <circle cx="280" cy="310" r="2.5" opacity="0.45"/>
    <circle cx="350" cy="295" r="1.8" opacity="0.4"/>
    <circle cx="420" cy="325" r="3" opacity="0.55"/>
    <circle cx="480" cy="300" r="2.5" opacity="0.5"/>
    <circle cx="530" cy="340" r="3" opacity="0.6"/>
    <circle cx="580" cy="310" r="3.5" opacity="0.65"/>
    <circle cx="620" cy="330" r="3" opacity="0.6"/>
    <circle cx="670" cy="305" r="2.8" opacity="0.55"/>
    <circle cx="730" cy="320" r="2.5" opacity="0.5"/>
    <circle cx="790" cy="295" r="2.2" opacity="0.45"/>
    <circle cx="860" cy="335" r="2" opacity="0.4"/>
    <circle cx="940" cy="310" r="1.8" opacity="0.35"/>
    <circle cx="1010" cy="290" r="1.5" opacity="0.3"/>
    <!-- Mid particles -->
    <circle cx="310" cy="260" r="1.5" opacity="0.3"/>
    <circle cx="450" cy="355" r="2" opacity="0.4"/>
    <circle cx="550" cy="270" r="2" opacity="0.4"/>
    <circle cx="650" cy="360" r="2.2" opacity="0.4"/>
    <circle cx="750" cy="270" r="1.8" opacity="0.35"/>
    <circle cx="850" cy="365" r="1.5" opacity="0.3"/>
    <!-- Bottom scattered -->
    <circle cx="150" cy="470" r="1.2" opacity="0.2"/>
    <circle cx="300" cy="510" r="1.5" opacity="0.25"/>
    <circle cx="460" cy="475" r="1" opacity="0.2"/>
    <circle cx="590" cy="520" r="1.3" opacity="0.25"/>
    <circle cx="740" cy="480" r="1.5" opacity="0.25"/>
    <circle cx="880" cy="530" r="1.2" opacity="0.2"/>
    <circle cx="1020" cy="490" r="1" opacity="0.2"/>
    <circle cx="1100" cy="550" r="1.2" opacity="0.15"/>
  </g>
  <!-- Bright streak accents -->
  <g stroke="#f43f5e" stroke-width="2" stroke-linecap="round" opacity="0.2">
    <line x1="300" y1="308" x2="340" y2="305"/>
    <line x1="500" y1="315" x2="550" y2="312"/>
    <line x1="700" y1="310" x2="740" y2="314"/>
  </g>
</svg>