<svg xmlns="http://www.w3.org/2000/svg" viewBox="0 0 1200 630">
  <defs>
    <radialGradient id="sb-bg" cx="50%" cy="40%" r="65%">
      <stop offset="0%" stop-color="#0d1428"/>
      <stop offset="100%" stop-color="#0a0e1a"/>
    </radialGradient>
    <linearGradient id="sb-grad" x1="0%" y1="0%" x2="100%" y2="100%">
      <stop offset="0%" stop-color="#3b82f6" stop-opacity="0.5"/>
      <stop offset="100%" stop-color="#3b82f6" stop-opacity="0.1"/>
    </linearGradient>
  </defs>
  <rect width="1200" height="630" fill="url(#sb-bg)"/>
  <!-- Background hex grid -->
  <g stroke="#3b82f6" fill="none" opacity="0.08" stroke-width="0.8">
    <path d="M100,100 l30,-52 60,0 30,52 -30,52 -60,0Z"/>
    <path d="M220,100 l30,-52 60,0 30,52 -30,52 -60,0Z"/>
    <path d="M340,100 l30,-52 60,0 30,52 -30,52 -60,0Z"/>
    <path d="M460,100 l30,-52 60,0 30,52 -30,52 -60,0Z"/>
    <path d="M580,100 l30,-52 60,0 30,52 -30,52 -60,0Z"/>
    <path d="M700,100 l30,-52 60,0 30,52 -30,52 -60,0Z"/>
    <path d="M820,100 l30,-52 60,0 30,52 -30,52 -60,0Z"/>
    <path d="M940,100 l30,-52 60,0 30,52 -30,52 -60,0Z"/>
    <path d="M160,204 l30,-52 60,0 30,52 -30,52 -60,0Z"/>
    <path d="M280,204 l30,-52 60,0 30,52 -30,52 -60,0Z"/>
    <path d="M400,204 l30,-52 60,0 30,52 -30,52 -60,0Z"/>
    <path d="M520,204 l30,-52 60,0 30,52 -30,52 -60,0Z"/>
    <path d="M640,204 l30,-52 60,0 30,52 -30,52 -60,0Z"/>
    <path d="M760,204 l30,-52 60,0 30,52 -30,52 -60,0Z"/>
    <path d="M880,204 l30,-52 60,0 30,52 -30,52 -60,0Z"/>
    <path d="M100,308 l30,-52 60,0 30,52 -30,52 -60,0Z"/>
    <path d="M220,308 l30,-52 60,0 30,52 -30,52 -60,0Z"/>
    <path d="M340,308 l30,-52 60,0 30,52 -30,52 -60,0Z"/>
    <path d="M460,308 l30,-52 60,0 30,52 -30,52 -60,0Z"/>
    <path d="M580,308 l30,-52 60,0 30,52 -30,52 -60,0Z"/>
    <path d="M700,308 l30,-52 60,0 30,52 -30,52 -60,0Z"/>
    <path d="M820,308 l30,-52 60,0 30,52 -30,52 -60,0Z"/>
    <path d="M940,308 l30,-52 60,0 30,52 -30,52 -60,0Z"/>
    <path d="M160,412 l30,-52 60,0 30,52 -30,52 -60,0Z"/>
    <path d="M280,412 l30,-52 60,0 30,52 -30,52 -60,0Z"/>
    <path d="M400,412 l30,-52 60,0 30,52 -30,52 -60,0Z"/>
    <path d="M520,412 l30,-52 60,0 30,52 -30,52 -60,0Z"/>
    <path d="M640,412 l30,-52 60,0 30,52 -30,52 -60,0Z"/>
    <path d="M760,412 l30,-52 60,0 30,52 -30,52 -60,0Z"/>
    <path d="M880,412 l30,-52 60,0 30,52 -30,52 -60,0Z"/>
    <path d="M100,516 l30,-52 60,0 30,52 -30,52 -60,0Z"/>
    <path d="M220,516 l30,-52 60,0 30,52 -30,52 -60,0Z"/>
    <path d="M340,516 l30,-52 60,0 30,52 -30,52 -60,0Z"/>
    <path d="M460,516 l30,-52 60,0 30,52 -30,52 -60,0Z"/>
    <path d="M580,516 l30,-52 60,0 30,52 -30,52 -60,0Z"/>
    <path d="M700,516 l30,-52 60,0 30,52 -30,52 -60,0Z"/>
    <path d="M820,516 l30,-52 60,0 30,52 -30,52 -60,0Z"/>
    <path d="M940,516 l30,-52 60,0 30,52 -30,52 -60,0Z"/>
  </g>
  <!-- Central shield shape -->
  <g opacity="0.25">
    <path d="M600,80 L780,180 780,400 600,530 420,400 420,180Z" fill="url(#sb-grad)" stroke="#3b82f6" stroke-width="1.5"/>
  </g>
  <g opacity="0.15">
    <path d="M600,130 L740,210 740,380 600,480 460,380 460,210Z" fill="none" stroke="#3b82f6" stroke-width="1"/>
  </g>
  <g opacity="0.1">
    <path d="M600,180 L700,240 700,360 600,430 500,360 500,240Z" fill="none" stroke="#3b82f6" stroke-width="0.8"/>
  </g>
  <!-- Highlighted hexagons -->
  <g stroke="#3b82f6" fill="#3b82f6" fill-opacity="0.08" opacity="0.4" stroke-width="1">
    <path d="M520,204 l30,-52 60,0 30,52 -30,52 -60,0Z"/>
    <path d="M580,308 l30,-52 60,0 30,52 -30,52 -60,0Z"/>
    <path d="M460,308 l30,-52 60,0 30,52 -30,52 -60,0Z"/>
    <path d="M700,308 l30,-52 60,0 30,52 -30,52 -60,0Z"/>
  </g>
  <!-- Corner accents -->
  <line x1="0" y1="0" x2="120" y2="0" stroke="#3b82f6" stroke-width="2" opacity="0.4"/>
  <line x1="0" y1="0" x2="0" y2="80" stroke="#3b82f6" stroke-width="2" opacity="0.4"/>
  <line x1="1200" y1="630" x2="1080" y2="630" stroke="#3b82f6" stroke-width="2" opacity="0.4"/>
  <line x1="1200" y1="630" x2="1200" y2="550" stroke="#3b82f6" stroke-width="2" opacity="0.4"/>
</svg>