<svg xmlns="http://www.w3.org/2000/svg" viewBox="0 0 1200 630">
  <defs>
    <radialGradient id="le-bg" cx="50%" cy="50%" r="65%">
      <stop offset="0%" stop-color="#0e1a16"/>
      <stop offset="100%" stop-color="#0a0e1a"/>
    </radialGradient>
    <radialGradient id="le-glow" cx="50%" cy="50%" r="40%">
      <stop offset="0%" stop-color="#34d399" stop-opacity="0.1"/>
      <stop offset="100%" stop-color="#34d399" stop-opacity="0"/>
    </radialGradient>
  </defs>
  <rect width="1200" height="630" fill="url(#le-bg)"/>
  <rect width="1200" height="630" fill="url(#le-glow)"/>
  <!-- Crystalline lattice - diamond grid pattern -->
  <!-- Lattice bonds - diagonal right -->
  <g stroke="#34d399" fill="none" stroke-width="0.6" opacity="0.1">
    <line x1="100" y1="15" x2="200" y2="115"/> <line x1="200" y1="115" x2="300" y2="15"/>
    <line x1="300" y1="15" x2="400" y2="115"/> <line x1="400" y1="115" x2="500" y2="15"/>
    <line x1="500" y1="15" x2="600" y2="115"/> <line x1="600" y1="115" x2="700" y2="15"/>
    <line x1="700" y1="15" x2="800" y2="115"/> <line x1="800" y1="115" x2="900" y2="15"/>
    <line x1="900" y1="15" x2="1000" y2="115"/> <line x1="1000" y1="115" x2="1100" y2="15"/>

    <line x1="100" y1="215" x2="200" y2="115"/> <line x1="200" y1="115" x2="300" y2="215"/>
    <line x1="300" y1="215" x2="400" y2="115"/> <line x1="400" y1="115" x2="500" y2="215"/>
    <line x1="500" y1="215" x2="600" y2="115"/> <line x1="600" y1="115" x2="700" y2="215"/>
    <line x1="700" y1="215" x2="800" y2="115"/> <line x1="800" y1="115" x2="900" y2="215"/>
    <line x1="900" y1="215" x2="1000" y2="115"/> <line x1="1000" y1="115" x2="1100" y2="215"/>

    <line x1="100" y1="215" x2="200" y2="315"/> <line x1="200" y1="315" x2="300" y2="215"/>
    <line x1="300" y1="215" x2="400" y2="315"/> <line x1="400" y1="315" x2="500" y2="215"/>
    <line x1="500" y1="215" x2="600" y2="315"/> <line x1="600" y1="315" x2="700" y2="215"/>
    <line x1="700" y1="215" x2="800" y2="315"/> <line x1="800" y1="315" x2="900" y2="215"/>
    <line x1="900" y1="215" x2="1000" y2="315"/> <line x1="1000" y1="315" x2="1100" y2="215"/>

    <line x1="100" y1="415" x2="200" y2="315"/> <line x1="200" y1="315" x2="300" y2="415"/>
    <line x1="300" y1="415" x2="400" y2="315"/> <line x1="400" y1="315" x2="500" y2="415"/>
    <line x1="500" y1="415" x2="600" y2="315"/> <line x1="600" y1="315" x2="700" y2="415"/>
    <line x1="700" y1="415" x2="800" y2="315"/> <line x1="800" y1="315" x2="900" y2="415"/>
    <line x1="900" y1="415" x2="1000" y2="315"/> <line x1="1000" y1="315" x2="1100" y2="415"/>

    <line x1="100" y1="415" x2="200" y2="515"/> <line x1="200" y1="515" x2="300" y2="415"/>
    <line x1="300" y1="415" x2="400" y2="515"/> <line x1="400" y1="515" x2="500" y2="415"/>
    <line x1="500" y1="415" x2="600" y2="515"/> <line x1="600" y1="515" x2="700" y2="415"/>
    <line x1="700" y1="415" x2="800" y2="515"/> <line x1="800" y1="515" x2="900" y2="415"/>
    <line x1="900" y1="415" x2="1000" y2="515"/> <line x1="1000" y1="515" x2="1100" y2="415"/>

    <line x1="100" y1="615" x2="200" y2="515"/> <line x1="200" y1="515" x2="300" y2="615"/>
    <line x1="300" y1="615" x2="400" y2="515"/> <line x1="400" y1="515" x2="500" y2="615"/>
    <line x1="500" y1="615" x2="600" y2="515"/> <line x1="600" y1="515" x2="700" y2="615"/>
    <line x1="700" y1="615" x2="800" y2="515"/> <line x1="800" y1="515" x2="900" y2="615"/>
    <line x1="900" y1="615" x2="1000" y2="515"/> <line x1="1000" y1="515" x2="1100" y2="615"/>
  </g>
  <!-- Brighter central lattice area -->
  <g stroke="#34d399" fill="none" stroke-width="1" opacity="0.25">
    <line x1="400" y1="215" x2="500" y2="315"/>
    <line x1="500" y1="315" x2="400" y2="415"/>
    <line x1="500" y1="215" x2="600" y2="315"/>
    <line x1="600" y1="315" x2="500" y2="415"/>
    <line x1="600" y1="215" x2="700" y2="315"/>
    <line x1="700" y1="315" x2="600" y2="415"/>
    <line x1="700" y1="215" x2="800" y2="315"/>
    <line x1="800" y1="315" x2="700" y2="415"/>
    <line x1="400" y1="315" x2="500" y2="215"/>
    <line x1="400" y1="315" x2="500" y2="415"/>
    <line x1="600" y1="115" x2="700" y2="215"/>
    <line x1="600" y1="115" x2="500" y2="215"/>
    <line x1="600" y1="515" x2="700" y2="415"/>
    <line x1="600" y1="515" x2="500" y2="415"/>
  </g>
  <!-- Lattice nodes - outer -->
  <g fill="#34d399" opacity="0.15">
    <circle cx="100" cy="15" r="2"/> <circle cx="300" cy="15" r="2"/>
    <circle cx="500" cy="15" r="2"/> <circle cx="700" cy="15" r="2"/>
    <circle cx="900" cy="15" r="2"/> <circle cx="1100" cy="15" r="2"/>
    <circle cx="200" cy="115" r="2"/> <circle cx="400" cy="115" r="2"/>
    <circle cx="800" cy="115" r="2"/> <circle cx="1000" cy="115" r="2"/>
    <circle cx="100" cy="215" r="2"/> <circle cx="300" cy="215" r="2"/>
    <circle cx="900" cy="215" r="2"/> <circle cx="1100" cy="215" r="2"/>
    <circle cx="100" cy="415" r="2"/> <circle cx="300" cy="415" r="2"/>
    <circle cx="900" cy="415" r="2"/> <circle cx="1100" cy="415" r="2"/>
    <circle cx="200" cy="515" r="2"/> <circle cx="400" cy="515" r="2"/>
    <circle cx="800" cy="515" r="2"/> <circle cx="1000" cy="515" r="2"/>
    <circle cx="100" cy="615" r="2"/> <circle cx="300" cy="615" r="2"/>
    <circle cx="500" cy="615" r="2"/> <circle cx="700" cy="615" r="2"/>
    <circle cx="900" cy="615" r="2"/> <circle cx="1100" cy="615" r="2"/>
  </g>
  <!-- Central lattice nodes - brighter -->
  <g fill="#34d399" opacity="0.45">
    <circle cx="600" cy="115" r="3"/>
    <circle cx="500" cy="215" r="3"/>
    <circle cx="700" cy="215" r="3"/>
    <circle cx="400" cy="315" r="3"/>
    <circle cx="600" cy="315" r="4.5"/>
    <circle cx="800" cy="315" r="3"/>
    <circle cx="500" cy="415" r="3"/>
    <circle cx="700" cy="415" r="3"/>
    <circle cx="600" cy="515" r="3"/>
  </g>
  <!-- Core node -->
  <circle cx="600" cy="315" r="2.5" fill="#fff" opacity="0.6"/>
</svg>