<svg xmlns="http://www.w3.org/2000/svg" viewBox="0 0 1200 630">
  <defs>
    <radialGradient id="gr-bg" cx="50%" cy="50%" r="60%">
      <stop offset="0%" stop-color="#1a0e0e"/>
      <stop offset="100%" stop-color="#0a0e1a"/>
    </radialGradient>
    <radialGradient id="gr-glow" cx="50%" cy="50%" r="35%">
      <stop offset="0%" stop-color="#ef4444" stop-opacity="0.12"/>
      <stop offset="100%" stop-color="#ef4444" stop-opacity="0"/>
    </radialGradient>
  </defs>
  <rect width="1200" height="630" fill="url(#gr-bg)"/>
  <ellipse cx="600" cy="315" rx="450" ry="250" fill="url(#gr-glow)"/>
  <!-- Distorted vertical lines -->
  <g stroke="#ef4444" fill="none" stroke-width="0.6" opacity="0.12">
    <path d="M100,0 Q105,160 95,315 Q105,470 100,630"/>
    <path d="M200,0 Q210,160 190,315 Q210,470 200,630"/>
    <path d="M300,0 Q320,160 280,315 Q320,470 300,630"/>
    <path d="M400,0 Q435,160 370,315 Q435,470 400,630"/>
    <path d="M500,0 Q555,160 460,315 Q555,470 500,630"/>
    <path d="M600,0 Q670,160 540,315 Q670,470 600,630"/>
    <path d="M700,0 Q755,160 660,315 Q755,470 700,630"/>
    <path d="M800,0 Q835,160 770,315 Q835,470 800,630"/>
    <path d="M900,0 Q920,160 880,315 Q920,470 900,630"/>
    <path d="M1000,0 Q1010,160 990,315 Q1010,470 1000,630"/>
    <path d="M1100,0 Q1105,160 1095,315 Q1105,470 1100,630"/>
  </g>
  <!-- Distorted horizontal lines -->
  <g stroke="#ef4444" fill="none" stroke-width="0.6" opacity="0.12">
    <path d="M0,63 Q300,58 600,68 Q900,58 1200,63"/>
    <path d="M0,126 Q300,116 600,136 Q900,116 1200,126"/>
    <path d="M0,189 Q300,169 600,209 Q900,169 1200,189"/>
    <path d="M0,252 Q300,222 600,282 Q900,222 1200,252"/>
    <path d="M0,315 Q300,275 600,355 Q900,275 1200,315"/>
    <path d="M0,378 Q300,348 600,408 Q900,348 1200,378"/>
    <path d="M0,441 Q300,421 600,461 Q900,421 1200,441"/>
    <path d="M0,504 Q300,494 600,514 Q900,494 1200,504"/>
    <path d="M0,567 Q300,562 600,572 Q900,562 1200,567"/>
  </g>
  <!-- Brighter inner grid distortion -->
  <g stroke="#ef4444" fill="none" stroke-width="1" opacity="0.25">
    <path d="M400,100 Q440,210 360,315 Q440,420 400,530"/>
    <path d="M500,100 Q560,210 450,315 Q560,420 500,530"/>
    <path d="M600,100 Q680,210 530,315 Q680,420 600,530"/>
    <path d="M700,100 Q760,210 650,315 Q760,420 700,530"/>
    <path d="M800,100 Q840,210 770,315 Q840,420 800,530"/>
  </g>
  <g stroke="#ef4444" fill="none" stroke-width="1" opacity="0.25">
    <path d="M300,189 Q450,169 600,209 Q750,169 900,189"/>
    <path d="M300,252 Q450,222 600,282 Q750,222 900,252"/>
    <path d="M300,315 Q450,275 600,355 Q750,275 900,315"/>
    <path d="M300,378 Q450,348 600,408 Q750,348 900,378"/>
    <path d="M300,441 Q450,421 600,461 Q750,421 900,441"/>
  </g>
  <!-- Central distortion emphasis -->
  <ellipse cx="580" cy="325" rx="80" ry="50" fill="#ef4444" opacity="0.04"/>
  <!-- Grid intersection highlights -->
  <g fill="#ef4444" opacity="0.35">
    <circle cx="530" cy="282" r="2"/>
    <circle cx="600" cy="355" r="2.5"/>
    <circle cx="660" cy="290" r="2"/>
    <circle cx="540" cy="400" r="1.8"/>
    <circle cx="680" cy="380" r="1.8"/>
  </g>
</svg>