<svg xmlns="http://www.w3.org/2000/svg" viewBox="0 0 1200 630">
  <defs>
    <radialGradient id="nc-bg" cx="50%" cy="50%" r="70%">
      <stop offset="0%" stop-color="#0f1729"/>
      <stop offset="100%" stop-color="#0a0e1a"/>
    </radialGradient>
    <radialGradient id="nc-glow" cx="50%" cy="50%" r="50%">
      <stop offset="0%" stop-color="#22d3ee" stop-opacity="0.15"/>
      <stop offset="100%" stop-color="#22d3ee" stop-opacity="0"/>
    </radialGradient>
    <filter id="nc-blur">
      <feGaussianBlur stdDeviation="2"/>
    </filter>
  </defs>
  <rect width="1200" height="630" fill="url(#nc-bg)"/>
  <ellipse cx="600" cy="315" rx="500" ry="280" fill="url(#nc-glow)"/>
  <!-- Neural connections -->
  <g stroke="#22d3ee" fill="none" opacity="0.2">
    <line x1="150" y1="120" x2="350" y2="200"/>
    <line x1="350" y1="200" x2="600" y2="150"/>
    <line x1="600" y1="150" x2="850" y2="210"/>
    <line x1="850" y1="210" x2="1050" y2="130"/>
    <line x1="200" y1="320" x2="400" y2="280"/>
    <line x1="400" y1="280" x2="600" y2="315"/>
    <line x1="600" y1="315" x2="800" y2="290"/>
    <line x1="800" y1="290" x2="1000" y2="340"/>
    <line x1="170" y1="500" x2="380" y2="430"/>
    <line x1="380" y1="430" x2="580" y2="480"/>
    <line x1="580" y1="480" x2="820" y2="420"/>
    <line x1="820" y1="420" x2="1030" y2="510"/>
    <line x1="350" y1="200" x2="400" y2="280"/>
    <line x1="600" y1="150" x2="600" y2="315"/>
    <line x1="850" y1="210" x2="800" y2="290"/>
    <line x1="400" y1="280" x2="380" y2="430"/>
    <line x1="600" y1="315" x2="580" y2="480"/>
    <line x1="800" y1="290" x2="820" y2="420"/>
  </g>
  <g stroke="#22d3ee" fill="none" opacity="0.35" stroke-width="0.5">
    <line x1="150" y1="120" x2="400" y2="280"/>
    <line x1="350" y1="200" x2="580" y2="480"/>
    <line x1="600" y1="150" x2="820" y2="420"/>
    <line x1="850" y1="210" x2="1000" y2="340"/>
    <line x1="200" y1="320" x2="380" y2="430"/>
    <line x1="800" y1="290" x2="1030" y2="510"/>
    <line x1="400" y1="280" x2="600" y2="150"/>
    <line x1="600" y1="315" x2="850" y2="210"/>
    <line x1="580" y1="480" x2="800" y2="290"/>
  </g>
  <!-- Neural nodes -->
  <g filter="url(#nc-blur)">
    <circle cx="150" cy="120" r="8" fill="#22d3ee" opacity="0.6"/>
    <circle cx="350" cy="200" r="10" fill="#22d3ee" opacity="0.7"/>
    <circle cx="600" cy="150" r="12" fill="#22d3ee" opacity="0.8"/>
    <circle cx="850" cy="210" r="10" fill="#22d3ee" opacity="0.7"/>
    <circle cx="1050" cy="130" r="7" fill="#22d3ee" opacity="0.5"/>
    <circle cx="200" cy="320" r="6" fill="#22d3ee" opacity="0.5"/>
    <circle cx="400" cy="280" r="11" fill="#22d3ee" opacity="0.75"/>
    <circle cx="600" cy="315" r="14" fill="#22d3ee" opacity="0.9"/>
    <circle cx="800" cy="290" r="11" fill="#22d3ee" opacity="0.75"/>
    <circle cx="1000" cy="340" r="6" fill="#22d3ee" opacity="0.5"/>
    <circle cx="170" cy="500" r="7" fill="#22d3ee" opacity="0.5"/>
    <circle cx="380" cy="430" r="9" fill="#22d3ee" opacity="0.65"/>
    <circle cx="580" cy="480" r="11" fill="#22d3ee" opacity="0.7"/>
    <circle cx="820" cy="420" r="9" fill="#22d3ee" opacity="0.65"/>
    <circle cx="1030" cy="510" r="7" fill="#22d3ee" opacity="0.5"/>
  </g>
  <!-- Core nodes -->
  <circle cx="600" cy="315" r="5" fill="#fff" opacity="0.9"/>
  <circle cx="350" cy="200" r="4" fill="#fff" opacity="0.7"/>
  <circle cx="850" cy="210" r="4" fill="#fff" opacity="0.7"/>
  <circle cx="400" cy="280" r="3.5" fill="#fff" opacity="0.6"/>
  <circle cx="800" cy="290" r="3.5" fill="#fff" opacity="0.6"/>
  <circle cx="600" cy="150" r="4" fill="#fff" opacity="0.7"/>
  <circle cx="580" cy="480" r="3.5" fill="#fff" opacity="0.6"/>
</svg>